<?xml version="1.0" standalone="no"?>
<!DOCTYPE svg PUBLIC "-//W3C//DTD SVG 20010904//EN"
 "http://www.w3.org/TR/2001/REC-SVG-20010904/DTD/svg10.dtd">
<svg version="1.0" xmlns="http://www.w3.org/2000/svg"
 width="960.000000pt" height="960.000000pt" viewBox="0 0 960.000000 960.000000"
 preserveAspectRatio="xMidYMid meet">

<g transform="translate(0.000000,960.000000) scale(0.100000,-0.100000)"
fill="#000000" stroke="none">
<path d="M4075 9575 c-13 -14 -32 -39 -40 -55 -8 -16 -24 -31 -35 -35 -15 -5
-19 -12 -14 -29 5 -22 3 -23 -45 -20 -43 3 -57 -1 -103 -32 -48 -33 -56 -35
-84 -25 -32 11 -64 6 -64 -10 0 -5 -18 -9 -40 -9 -28 0 -38 -4 -34 -13 2 -7
-4 -22 -16 -32 -11 -10 -20 -23 -20 -30 0 -18 -43 -34 -123 -46 -40 -6 -76
-14 -82 -19 -5 -4 -46 -26 -90 -50 -44 -24 -86 -47 -93 -53 -24 -19 -51 -83
-45 -106 4 -15 -2 -30 -17 -46 -20 -22 -28 -23 -84 -18 -53 5 -64 3 -86 -17
-21 -18 -22 -20 -5 -15 39 14 60 16 83 8 22 -8 21 -10 -23 -41 -55 -39 -95
-51 -95 -29 0 9 5 19 10 22 6 3 10 11 10 17 0 23 -29 -15 -35 -45 -13 -72 -28
-117 -38 -117 -7 0 -7 -4 1 -12 7 -7 12 -24 12 -39 0 -20 -4 -26 -17 -24 -10
1 -12 0 -5 -2 6 -3 12 -10 12 -16 0 -7 3 -22 6 -35 5 -18 3 -21 -10 -16 -21 8
-20 2 4 -26 25 -29 42 -92 34 -125 -3 -14 -2 -25 3 -25 5 0 26 -31 47 -70 20
-38 41 -70 46 -70 5 0 16 13 25 29 33 64 78 122 137 174 70 63 139 87 252 87
51 0 67 4 75 18 8 14 13 15 28 5 10 -7 33 -20 51 -29 38 -19 112 -87 112 -103
0 -6 14 -18 30 -26 17 -9 28 -20 25 -24 -2 -5 9 -14 25 -21 17 -7 30 -17 30
-23 0 -13 53 -62 63 -59 8 2 77 -36 77 -43 0 -2 -10 -1 -22 2 -20 5 -19 2 9
-25 21 -19 31 -36 27 -46 -4 -11 -1 -16 10 -16 9 0 21 -12 27 -27 8 -22 12
-24 19 -13 9 13 10 13 10 0 0 -16 43 -40 72 -40 10 0 18 7 18 15 0 21 17 19
30 -5 9 -16 8 -19 -6 -13 -12 4 -15 3 -10 -5 4 -7 14 -12 22 -12 19 0 56 -38
49 -50 -4 -6 2 -10 12 -10 12 0 14 -3 6 -8 -8 -5 -9 -13 -3 -22 7 -12 13 -12
27 -4 10 6 19 17 19 25 1 8 2 20 3 27 1 14 37 16 46 2 3 -6 -4 -10 -16 -10
-21 0 -21 -1 -5 -19 16 -18 16 -21 1 -44 -18 -28 -48 -44 -53 -28 -5 14 -32
14 -32 1 0 -5 -7 -10 -16 -10 -8 0 -13 -4 -10 -9 9 -13 -19 -32 -38 -25 -21 8
-31 -18 -19 -53 14 -39 6 -53 -28 -53 -26 0 -29 -3 -29 -34 0 -25 -5 -36 -18
-41 -22 -6 -42 -45 -42 -80 0 -14 -4 -25 -10 -25 -13 0 -13 -67 0 -75 6 -4 17
-2 25 5 9 7 15 8 20 0 3 -5 2 -10 -4 -10 -5 0 -11 -19 -13 -42 -3 -40 -5 -43
-43 -52 -22 -5 -42 -12 -45 -16 -3 -3 -13 -9 -23 -13 -9 -4 -21 -17 -26 -29
-6 -15 -27 -30 -60 -43 -28 -11 -51 -25 -51 -32 0 -7 -6 -13 -14 -13 -8 0 -20
-20 -27 -45 -7 -25 -19 -45 -26 -45 -7 0 -13 -9 -13 -20 0 -20 -14 -27 -24
-11 -3 5 -23 11 -43 14 -21 2 -67 10 -103 17 -36 7 -72 13 -80 14 -17 3 -102
45 -110 55 -8 10 -80 30 -80 22 0 -4 17 -15 38 -25 56 -27 129 -84 153 -119
19 -27 15 -25 -27 14 -60 56 -83 70 -159 98 -197 73 -401 88 -466 34 -25 -21
-29 -22 -29 -7 0 10 -7 26 -17 36 -10 12 -12 18 -4 18 26 0 -1 18 -36 24 -21
4 -45 9 -53 11 -15 5 -43 -39 -32 -50 3 -3 7 -15 9 -27 2 -11 13 -29 26 -39
55 -46 55 -44 7 -50 -50 -7 -60 -4 -60 16 0 71 -144 234 -177 201 -4 -3 -21 5
-39 19 -35 27 -52 19 -48 -22 0 -12 -5 -24 -12 -27 -18 -7 -12 -115 6 -126 11
-7 14 -42 14 -157 0 -81 3 -137 7 -123 6 22 7 22 8 4 1 -29 37 -130 54 -154
13 -19 14 -17 11 20 -4 57 10 42 31 -35 9 -36 20 -65 24 -65 3 0 30 22 60 48
l55 48 -3 62 c-2 62 15 112 47 137 10 8 11 17 3 38 -13 34 -14 47 -3 47 12 0
33 -50 27 -61 -4 -5 3 -9 14 -9 25 0 19 21 -18 62 -27 31 -56 36 -65 12 -3 -8
-11 -12 -17 -8 -17 10 31 44 64 44 15 0 27 -4 27 -9 0 -5 9 -12 19 -16 23 -7
42 -50 40 -90 -4 -99 98 -364 194 -504 103 -150 281 -295 356 -289 17 1 38 -5
48 -14 10 -9 30 -20 46 -23 33 -9 35 -22 5 -28 -13 -2 1 -5 31 -6 30 0 90 9
134 20 78 22 81 22 153 5 71 -17 94 -36 59 -50 -8 -3 -15 -17 -15 -31 0 -14 7
-28 15 -31 24 -10 18 -49 -10 -64 -14 -7 -25 -19 -25 -25 0 -7 -7 -18 -16 -26
-10 -8 -14 -24 -12 -46 4 -34 -5 -45 -16 -18 -3 8 -11 15 -19 15 -22 0 -92
-83 -113 -134 -10 -25 -24 -46 -30 -46 -16 0 -24 -24 -24 -71 0 -28 -6 -42
-20 -51 -23 -15 -28 -72 -7 -97 24 -29 49 -154 37 -185 -5 -15 -10 -56 -10
-90 0 -55 -3 -64 -20 -69 -11 -3 -20 -12 -20 -20 0 -19 -33 -31 -59 -22 -13 4
-24 -1 -33 -14 -21 -30 -61 -45 -86 -32 -16 8 -23 8 -29 -1 -11 -18 -79 -68
-92 -68 -21 0 -11 -31 14 -40 14 -5 31 -24 39 -43 8 -19 19 -38 25 -41 6 -4
11 -13 11 -20 0 -23 -77 -92 -134 -121 -31 -16 -61 -34 -67 -42 -7 -7 -22 -13
-35 -13 -12 0 -26 -5 -29 -10 -4 -6 -17 -3 -34 9 -15 11 -40 23 -57 27 -16 3
-43 17 -61 30 -35 27 -64 23 -56 -7 8 -29 -5 -23 -23 13 -9 18 -22 37 -28 43
-16 15 -48 15 -60 0 -6 -7 -25 -15 -42 -18 -18 -3 -44 -9 -60 -13 -28 -7 -28
-7 -8 14 10 11 31 23 47 27 15 4 30 11 33 16 3 5 16 9 30 9 13 0 24 5 24 10 0
6 9 10 20 10 16 0 20 7 20 34 0 19 5 38 10 41 6 4 7 11 4 17 -4 6 -1 14 5 18
21 12 26 114 7 150 -9 18 -16 37 -16 42 0 18 30 6 53 -22 14 -16 30 -30 36
-30 6 0 40 -18 75 -39 39 -24 72 -38 83 -35 11 3 47 -4 81 -15 34 -12 64 -21
67 -21 12 0 4 48 -10 60 -8 7 -15 19 -15 26 0 8 -4 14 -9 14 -13 0 -25 57 -23
113 1 32 -2 47 -10 47 -9 0 -8 4 2 10 11 8 5 10 -25 8 -32 -3 -40 0 -43 17 -3
11 -9 23 -15 27 -22 14 -116 -2 -162 -28 -47 -26 -72 -27 -139 -7 -15 4 -18 1
-14 -15 3 -12 1 -23 -6 -26 -6 -2 -4 -5 5 -5 14 -1 59 -40 59 -52 0 -3 -9 -5
-21 -6 -14 -1 -19 3 -15 13 3 8 -1 14 -8 14 -8 0 -17 -6 -19 -12 -3 -8 -6 -5
-6 5 -1 14 -6 17 -23 11 -28 -8 -63 -32 -63 -42 0 -4 -34 -7 -77 -7 -42 0 -80
-3 -84 -7 -4 -5 -23 -8 -43 -8 -20 0 -47 -9 -61 -20 -14 -11 -37 -20 -52 -20
-17 0 -28 -5 -28 -14 0 -8 -13 -19 -30 -24 -16 -6 -51 -31 -77 -56 -25 -25
-50 -43 -53 -41 -4 2 -13 -7 -20 -20 -7 -14 -19 -25 -27 -25 -7 0 -13 -7 -13
-15 0 -8 -4 -15 -10 -15 -5 0 -7 7 -4 15 12 31 -14 14 -27 -17 -7 -18 -38 -58
-69 -88 -30 -31 -82 -90 -116 -131 -50 -63 -62 -73 -73 -62 -18 20 -55 -5 -59
-41 -2 -14 -10 -26 -18 -26 -8 0 -14 -4 -14 -10 0 -5 -6 -10 -14 -10 -8 0 -28
-13 -46 -30 -37 -34 -43 -36 -60 -15 -17 20 -30 9 -30 -26 0 -33 -1 -34 -39
-14 -16 8 -31 12 -34 9 -3 -3 -14 -1 -25 5 -29 15 -94 2 -89 -18 2 -9 9 -15
15 -13 13 2 6 -45 -8 -62 -13 -13 -78 13 -99 40 -22 27 -31 30 -31 10 0 -17
-51 -56 -74 -56 -8 0 -32 11 -52 25 -20 14 -40 25 -45 25 -4 0 -13 -16 -20
-35 -10 -26 -17 -34 -29 -29 -8 4 -39 8 -68 8 -33 1 -56 6 -61 15 -6 9 -20 12
-42 8 -19 -2 -61 2 -93 10 -54 14 -63 13 -93 -1 -31 -15 -36 -15 -57 0 -16 10
-26 12 -31 5 -3 -6 -15 -11 -26 -11 -10 0 -19 -6 -19 -14 0 -26 -130 -35 -151
-10 -9 11 -22 14 -47 9 -30 -5 -57 1 -142 33 -8 3 -32 6 -53 7 l-37 1 0 -1250
c0 -688 4 -1255 8 -1261 19 -26 86 -48 166 -54 67 -5 88 -11 99 -25 10 -14 21
-17 40 -12 18 4 41 -2 74 -19 35 -18 42 -25 26 -25 -13 0 -23 -5 -23 -11 0 -8
-17 -10 -55 -5 -67 8 -102 23 -108 46 -4 16 -10 17 -45 9 -22 -5 -72 -10 -111
-11 l-71 -2 0 -83 0 -83 41 22 c35 18 44 19 65 8 18 -10 32 -11 61 -2 21 6 75
14 121 18 76 6 84 9 93 31 11 29 31 38 58 24 19 -11 19 -14 6 -51 -18 -51 -40
-142 -61 -257 -16 -90 -17 -92 -48 -98 -88 -18 -128 -39 -119 -62 8 -22 -15
-33 -69 -33 -35 0 -50 -5 -57 -18 -12 -23 -78 -45 -84 -28 -3 6 -5 -260 -6
-591 l-1 -603 1722 0 1721 0 -23 28 c-14 15 -31 34 -40 43 -8 8 -26 28 -40 44
l-25 29 27 -17 c34 -21 49 -22 42 -2 -8 19 7 19 50 1 43 -18 82 -61 90 -97 5
-28 8 -29 61 -29 l55 0 6 40 c8 52 24 52 24 0 l0 -40 986 0 987 0 -27 21 c-14
11 -26 26 -26 32 1 19 49 69 60 62 5 -3 7 0 5 8 -7 17 30 51 45 42 5 -3 8 -11
5 -16 -10 -16 29 -9 50 9 11 9 32 33 46 52 15 19 53 62 85 96 69 71 114 125
114 136 0 4 7 8 15 8 9 0 18 8 22 18 3 9 32 45 65 79 61 64 68 84 42 111 -15
15 -15 17 2 32 11 8 34 32 51 53 l33 37 22 -26 c13 -14 42 -47 66 -72 46 -51
49 -64 28 -108 -8 -16 -19 -56 -25 -89 -5 -33 -34 -131 -63 -217 -30 -87 -53
-158 -52 -158 4 0 194 220 194 225 0 4 -7 13 -15 21 -8 9 -15 18 -15 22 0 4
24 34 54 67 l53 60 69 -61 69 -62 -2 -65 c-1 -36 -4 -75 -8 -86 -7 -23 -40
-28 -48 -8 -4 8 -17 0 -37 -23 -86 -94 -156 -174 -163 -186 -7 -12 255 -14
1618 -14 l1625 0 0 1373 c0 975 -3 1376 -11 1384 -8 8 -8 13 0 17 8 5 11 211
11 697 l0 689 -50 0 c-42 0 -50 3 -50 19 0 28 26 44 65 39 l35 -4 0 347 c0
266 -3 349 -12 356 -12 8 -117 10 -148 2 -8 -2 -14 2 -12 9 3 19 -49 36 -60
20 -4 -7 -8 -8 -8 -3 -1 24 -30 -32 -30 -58 0 -28 -1 -29 -36 -22 -20 3 -34 3
-32 -2 2 -4 10 -20 18 -36 9 -19 10 -31 3 -38 -16 -16 -53 7 -53 31 0 16 -7
20 -30 20 -17 0 -45 6 -63 14 -59 24 -161 30 -204 11 -64 -28 -68 -31 -71 -57
-3 -21 -11 -28 -47 -38 -24 -7 -49 -9 -56 -5 -26 17 -203 22 -222 7 -20 -16
-78 -25 -166 -25 -69 0 -88 -4 -103 -19 -10 -10 -23 -16 -28 -13 -5 3 -11 1
-15 -5 -9 -15 -117 -12 -165 5 -23 8 -51 15 -62 15 -25 0 -88 -48 -88 -67 0
-10 -7 -14 -20 -10 -25 6 -27 -8 -2 -17 9 -3 31 -15 49 -25 28 -18 35 -18 60
-7 15 8 57 17 93 20 56 6 71 4 105 -16 35 -19 52 -21 135 -19 52 1 99 7 105
12 11 11 45 12 45 1 0 -5 24 -17 53 -27 63 -21 112 -59 100 -78 -4 -6 -8 -18
-9 -25 -2 -8 -5 -17 -9 -20 -11 -11 -136 -6 -190 7 -27 6 -69 14 -93 16 -23 3
-57 12 -75 21 -35 19 -149 33 -298 38 -53 2 -105 7 -117 10 -16 6 -22 3 -22
-8 0 -9 -6 -16 -12 -16 -7 0 0 -11 16 -25 21 -18 24 -25 13 -25 -9 0 -31 16
-48 35 -18 19 -38 35 -46 35 -7 0 -13 4 -13 8 0 5 -14 7 -30 4 -28 -4 -32 -1
-54 50 -22 49 -53 95 -117 174 -31 38 -142 146 -203 197 -104 88 -124 109
-140 142 -13 26 -14 40 -6 54 5 11 9 46 9 78 l-2 58 -7 -58 c-4 -32 -9 -60
-12 -62 -2 -3 -14 4 -25 15 -15 13 -23 37 -27 77 -22 210 -97 453 -140 453
-12 0 -66 124 -66 151 0 8 -13 39 -29 70 l-30 56 15 84 c20 116 22 123 40 108
17 -14 18 0 1 23 -11 14 -10 34 4 110 20 110 43 305 65 553 17 189 14 425 -6
540 -15 89 -59 271 -81 340 -10 33 -27 92 -38 130 -87 321 -157 473 -319 688
-128 171 -358 395 -617 603 -242 195 -479 352 -511 340 -8 -3 -28 4 -44 15
-27 20 -42 25 -97 28 -13 0 -23 7 -23 16 0 22 -991 23 -1010 0 -11 -13 -14
-13 -27 0 -8 9 -33 15 -58 15 -34 0 -50 -6 -70 -25z m-167 -177 c-3 -7 -13
-15 -24 -17 -16 -3 -17 -1 -5 13 16 19 34 21 29 4z m-163 -28 c3 -5 -1 -10 -9
-10 -9 0 -16 5 -16 10 0 6 4 10 9 10 6 0 13 -4 16 -10z m-39 -37 c-10 -10 -46
-11 -40 -1 3 4 15 8 26 8 12 0 18 -3 14 -7z m940 -610 c-6 -6 -46 30 -46 41 0
5 11 -1 25 -14 14 -13 23 -25 21 -27z m-851 -63 c3 -5 1 -10 -4 -10 -6 0 -11
5 -11 10 0 6 2 10 4 10 3 0 8 -4 11 -10z m425 -610 c0 -5 -4 -10 -9 -10 -6 0
-13 5 -16 10 -3 6 1 10 9 10 9 0 16 -4 16 -10z m-1778 -651 c41 -22 100 -94
114 -139 26 -85 11 -123 -16 -41 -7 22 -19 42 -26 45 -7 3 -20 20 -27 38 -8
19 -28 48 -46 65 -42 42 -42 55 1 32z m-115 -66 c-3 -10 -5 -4 -5 12 0 17 2
24 5 18 2 -7 2 -21 0 -30z m423 -217 c0 -3 -4 -8 -10 -11 -5 -3 -10 -1 -10 4
0 6 5 11 10 11 6 0 10 -2 10 -4z m-163 -58 c-3 -8 -6 -5 -6 6 -1 11 2 17 5 13
3 -3 4 -12 1 -19z m1653 -158 c0 -5 -9 -10 -21 -10 -11 0 -17 5 -14 10 3 6 13
10 21 10 8 0 14 -4 14 -10z m-550 -40 c-12 -22 -25 -26 -35 -10 -9 15 4 30 26
30 17 0 18 -3 9 -20z m-75 -19 c-6 -5 -22 -13 -37 -16 -22 -6 -28 -4 -28 9 0
12 10 16 37 16 23 0 33 -4 28 -9z m388 -98 c-7 -2 -19 -2 -25 0 -7 3 -2 5 12
5 14 0 19 -2 13 -5z m-453 -478 c-13 -14 -28 -25 -34 -25 -6 1 3 12 19 25 39
32 45 32 15 0z m-70 -44 c0 -11 -50 -24 -58 -16 -8 8 19 25 41 25 9 0 17 -4
17 -9z m3363 -321 c-3 -11 -1 -20 5 -20 14 0 33 -58 22 -65 -15 -9 -48 53 -42
80 2 14 8 25 12 25 5 0 6 -9 3 -20z m33 -153 c4 -14 13 -18 30 -14 16 3 25 -1
29 -14 3 -9 12 -20 20 -23 8 -3 15 -15 15 -28 0 -12 10 -41 21 -65 12 -24 18
-47 14 -51 -10 -10 -52 47 -59 80 -5 23 -10 28 -25 23 -14 -4 -24 2 -37 25
-10 16 -24 30 -30 30 -13 0 -28 30 -19 39 3 3 10 -1 15 -9 8 -13 10 -12 10 2
0 10 -9 22 -20 28 -11 6 -20 15 -20 21 0 15 49 -23 56 -44z m52 -162 c26 -32
21 -48 -5 -18 -10 10 -26 22 -36 26 -9 4 -21 17 -26 30 -5 12 -16 29 -25 36
-9 7 -16 21 -16 30 0 15 40 -23 108 -104z m42 -66 c0 -6 -4 -7 -10 -4 -5 3
-10 11 -10 16 0 6 5 7 10 4 6 -3 10 -11 10 -16z m50 -75 c5 -21 6 -42 3 -48
-7 -10 -23 25 -28 59 -2 11 -6 29 -11 40 -6 19 -6 19 10 4 10 -9 21 -33 26
-55z m-35 26 c3 -5 1 -10 -4 -10 -6 0 -11 5 -11 10 0 6 2 10 4 10 3 0 8 -4 11
-10z m83 -55 c0 -16 -2 -15 -8 5 -4 14 -8 34 -8 45 0 16 2 15 8 -5 4 -14 8
-34 8 -45z m-5111 -801 c-3 -3 -12 -4 -19 -1 -8 3 -5 6 6 6 11 1 17 -2 13 -5z
m-277 -15 c0 -6 -8 -18 -17 -27 -16 -16 -16 -16 -10 1 4 10 7 23 7 28 0 5 5 9
10 9 6 0 10 -5 10 -11z m215 -9 c-3 -5 -11 -10 -16 -10 -6 0 -7 5 -4 10 3 6
11 10 16 10 6 0 7 -4 4 -10z m6955 -100 c12 -8 12 -10 -3 -16 -9 -3 -29 -3
-44 1 -21 5 -24 8 -12 16 18 11 40 11 59 -1z m-7170 -49 c-6 -12 -15 -21 -20
-21 -11 0 -60 -48 -60 -58 0 -4 -14 -15 -30 -24 -35 -20 -38 -11 -10 25 11 14
20 31 20 38 0 7 3 9 6 6 4 -4 24 7 44 23 20 16 40 27 44 23 3 -3 6 0 6 7 0 7
3 11 6 8 3 -4 1 -16 -6 -27z m6270 -21 c0 -5 -7 -7 -15 -4 -8 4 -15 8 -15 10
0 2 7 4 15 4 8 0 15 -4 15 -10z m-7373 -80 c-2 -42 -16 -51 -38 -23 -12 14
-12 16 0 8 11 -6 13 -3 8 17 -7 27 -1 38 19 38 9 0 13 -13 11 -40z m3187 -12
c-20 -117 -4 -362 30 -473 9 -27 16 -64 16 -82 0 -17 9 -48 20 -70 22 -45 106
-257 115 -294 5 -19 2 -26 -9 -26 -9 0 -16 4 -16 9 0 5 -11 14 -25 20 -16 7
-24 17 -20 26 3 10 0 12 -10 8 -18 -6 -19 6 -5 54 7 28 7 32 -3 20 -13 -16
-53 -27 -43 -12 8 13 -21 35 -35 27 -14 -9 -29 12 -29 40 0 16 2 17 10 5 5 -8
12 -12 15 -8 4 3 -7 19 -24 35 -31 30 -54 76 -44 87 4 3 15 6 25 6 19 0 24
-15 8 -25 -5 -3 -6 -13 -3 -21 10 -26 22 5 17 43 -3 22 -1 32 6 28 6 -4 10 4
9 17 0 13 -3 18 -6 11 -8 -22 -43 9 -42 37 2 23 2 24 6 3 5 -26 43 -33 43 -8
0 9 -6 12 -17 8 -11 -4 -14 -3 -9 5 12 20 -4 102 -20 102 -8 0 -14 5 -14 10 0
6 -4 10 -10 10 -5 0 -10 -7 -10 -16 0 -8 -4 -12 -10 -9 -5 3 -10 20 -10 36 0
44 -20 25 -21 -19 l-1 -37 -8 30 c-4 17 -14 44 -21 62 -13 27 -17 30 -32 18
-19 -14 -37 -65 -37 -106 0 -15 -9 -48 -21 -73 -19 -44 -19 -49 -4 -72 11 -16
13 -30 7 -37 -5 -7 -12 -25 -16 -41 -4 -15 -13 -35 -21 -42 -8 -8 -12 -21 -9
-29 4 -8 1 -36 -4 -62 -6 -27 -14 -69 -17 -95 -3 -27 -11 -48 -17 -48 -16 0
-3 328 17 415 9 39 22 104 30 146 16 92 34 129 80 166 19 15 35 36 35 46 0 11
9 30 20 44 11 14 20 37 20 50 0 13 11 34 25 47 14 13 25 28 25 33 0 13 40 42
58 42 11 1 12 -9 6 -41z m107 -5 c95 -132 214 -370 213 -424 -1 -26 2 -36 11
-33 19 8 29 -16 14 -31 -8 -7 -25 -15 -39 -18 -22 -5 -35 3 -86 56 -57 59 -90
111 -85 132 1 6 -3 5 -10 -2 -9 -9 -9 -22 -1 -52 5 -23 7 -41 3 -41 -4 0 -12
20 -18 45 -6 25 -6 45 -2 45 5 0 9 7 9 15 0 8 -5 14 -11 12 -15 -3 -35 77 -54
213 -18 132 -19 130 3 130 11 0 33 -21 53 -47z m4975 11 c6 -8 16 -14 23 -14
6 0 11 -4 11 -9 0 -5 9 -13 20 -16 11 -3 20 -11 20 -16 0 -5 -9 -9 -20 -9 -11
0 -20 7 -20 15 0 15 -43 21 -119 16 -18 -2 -52 5 -75 15 -53 23 -53 23 -36 35
22 14 182 0 196 -17z m-7726 -6 c11 -12 19 -27 17 -33 -5 -14 -116 -25 -145
-14 -13 5 -43 9 -68 9 -24 0 -44 5 -44 10 0 6 7 10 15 10 8 0 15 5 15 11 0 8
13 10 38 6 22 -4 53 -1 77 8 55 20 71 18 95 -7z m-280 -25 c-23 -16 -92 -14
-97 4 -5 13 44 20 90 14 27 -3 28 -4 7 -18z m695 -13 c-10 -11 -23 -20 -29
-20 -6 0 0 9 14 20 32 25 38 25 15 0z m6602 4 c23 -6 40 -34 20 -34 -15 0 -66
40 -52 40 6 0 20 -3 32 -6z m961 -10 c34 -10 29 -41 -8 -42 -33 -1 -43 8 -34
32 7 18 9 18 42 10z m-803 -144 c3 -5 1 -10 -4 -10 -6 0 -11 5 -11 10 0 6 2
10 4 10 3 0 8 -4 11 -10z m74 -15 c-3 -28 -16 -37 -38 -26 -32 17 -27 39 9 37
17 -1 30 -6 29 -11z m-7364 -95 c-3 -5 -15 -10 -25 -10 -10 0 -22 5 -25 10 -4
6 7 10 25 10 18 0 29 -4 25 -10z m2725 -175 c0 -8 -4 -15 -10 -15 -5 0 -10 7
-10 15 0 8 5 15 10 15 6 0 10 -7 10 -15z m-44 -57 c2 -25 0 -28 -8 -14 -5 9
-7 24 -4 32 3 8 1 14 -4 14 -6 0 -10 5 -10 12 0 28 25 -14 26 -44z m-37 -312
c9 -11 8 -17 -4 -29 -8 -9 -15 -17 -15 -20 0 -12 40 -47 51 -45 8 2 15 -7 17
-19 3 -20 -1 -23 -27 -23 -32 0 -50 15 -29 23 7 3 0 6 -17 6 -22 1 -26 4 -17
13 9 9 8 14 -2 22 -20 17 -9 86 14 86 10 0 23 -6 29 -14z m168 -12 c19 -21 22
-29 11 -35 -9 -6 -16 -2 -22 11 -5 11 -13 20 -18 20 -4 0 -8 7 -8 15 0 22 9
19 37 -11z m357 -29 c3 -8 14 -15 24 -15 11 0 40 -19 66 -41 36 -32 57 -43 89
-46 23 -2 50 -12 62 -23 12 -11 27 -20 33 -20 7 0 34 -21 60 -47 27 -27 55
-49 63 -51 7 -2 16 -7 19 -12 10 -16 143 -60 182 -60 21 0 51 6 66 13 35 18
83 19 102 4 41 -32 48 -56 44 -152 -2 -52 0 -96 5 -99 10 -7 37 7 97 47 44 30
75 27 103 -7 7 -9 22 -16 32 -16 26 0 24 -24 -3 -37 -183 -87 -220 -97 -348
-94 -167 4 -169 4 -174 17 -3 7 -19 11 -41 9 -38 -4 -75 11 -75 31 0 6 -11 16
-25 22 -19 9 -25 19 -25 42 0 21 -5 30 -17 31 -16 1 -16 2 0 6 16 4 17 11 12
46 -4 23 -11 43 -16 45 -4 2 -5 10 -2 19 7 18 -32 52 -60 53 -10 0 -20 6 -23
14 -7 18 -71 62 -104 71 -17 4 -21 3 -11 -3 17 -12 4 -19 -33 -17 -59 3 -108
95 -120 223 -5 57 4 82 18 47z m-324 -63 c0 -36 -17 -42 -18 -7 -1 21 3 33 8
30 6 -3 10 -14 10 -23z m5246 0 c6 -4 14 -18 18 -32 5 -17 4 -21 -2 -11 -7 9
-11 10 -17 2 -5 -9 -10 -9 -20 -1 -11 9 -13 25 -6 48 2 4 16 2 27 -6z m314
-102 c0 -5 -13 -16 -29 -25 -31 -16 -48 -7 -37 20 6 17 66 21 66 5z m-5325
-69 c-3 -5 -1 -12 5 -16 5 -3 10 -12 10 -18 0 -7 -7 -3 -15 7 -13 17 -12 36 1
36 3 0 3 -4 -1 -9z m-165 -31 c0 -5 -2 -10 -4 -10 -3 0 -8 5 -11 10 -3 6 -1
10 4 10 6 0 11 -4 11 -10z m290 -145 c7 -9 8 -15 2 -15 -5 0 -12 7 -16 15 -3
8 -4 15 -2 15 2 0 9 -7 16 -15z m184 -120 c40 -19 79 -35 85 -35 7 0 10 -4 6
-9 -8 -14 -53 2 -109 37 -27 17 -53 29 -57 26 -5 -3 -9 0 -9 5 0 16 4 15 84
-24z m156 -65 c0 -5 -4 -10 -10 -10 -5 0 -10 5 -10 10 0 6 5 10 10 10 6 0 10
-4 10 -10z m5005 -190 c3 -5 1 -10 -4 -10 -6 0 -11 5 -11 10 0 6 2 10 4 10 3
0 8 -4 11 -10z m-7307 -25 c-3 -3 -9 2 -12 12 -6 14 -5 15 5 6 7 -7 10 -15 7
-18z m7322 -35 c0 -11 -2 -20 -4 -20 -2 0 -6 9 -9 20 -3 11 -1 20 4 20 5 0 9
-9 9 -20z m-4360 -124 c0 -3 -4 -8 -10 -11 -5 -3 -10 -1 -10 4 0 6 5 11 10 11
6 0 10 -2 10 -4z m-2809 -73 c23 -55 23 -60 2 -60 -25 0 -43 16 -36 33 3 8 0
21 -7 29 -10 12 -10 15 0 15 7 0 10 8 7 20 -9 35 14 10 34 -37z m2209 27 c0
-5 -4 -10 -10 -10 -5 0 -10 5 -10 10 0 6 5 10 10 10 6 0 10 -4 10 -10z m557
-44 c-6 -18 -57 -20 -57 -2 0 15 26 25 48 18 7 -2 11 -10 9 -16z m-2967 -126
c0 -5 -2 -10 -4 -10 -3 0 -8 5 -11 10 -3 6 -1 10 4 10 6 0 11 -4 11 -10z
m-2062 -197 c-10 -2 -26 -2 -35 0 -10 3 -2 5 17 5 19 0 27 -2 18 -5z m2262
-94 c0 -6 -4 -7 -10 -4 -5 3 -10 11 -10 16 0 6 5 7 10 4 6 -3 10 -11 10 -16z
m3030 -144 c-7 -8 -18 -15 -24 -15 -6 0 -2 7 8 15 25 19 32 19 16 0z m-152
-130 c-26 -24 -58 -33 -58 -17 0 9 57 40 75 41 5 1 -2 -10 -17 -24z m-2643
-168 c52 -94 87 -170 94 -205 7 -32 27 -120 46 -197 18 -77 36 -155 40 -172 6
-29 10 -32 30 -27 21 5 25 1 34 -33 22 -85 30 -128 22 -136 -10 -10 -139 -58
-172 -64 -25 -5 -26 -2 -42 74 -13 68 -13 80 -1 94 13 15 11 34 -20 160 -20
79 -43 176 -52 214 -9 39 -30 112 -46 163 -23 74 -32 92 -48 92 -15 0 -23 12
-34 53 -30 106 -30 104 1 121 52 29 61 21 148 -137z m2551 105 c-18 -16 -18
-16 -6 6 6 13 14 21 18 18 3 -4 -2 -14 -12 -24z m404 24 c0 -3 -4 -8 -10 -11
-5 -3 -10 -1 -10 4 0 6 5 11 10 11 6 0 10 -2 10 -4z m-3251 -136 c33 -74 38
-100 20 -100 -15 0 -9 -23 77 -302 73 -240 103 -327 151 -445 25 -63 24 -83
-3 -83 -11 0 -13 -6 -8 -22 4 -16 -14 -3 -62 42 -227 215 -256 254 -269 365
-4 33 -17 101 -30 150 -29 110 -34 157 -18 162 7 3 18 -8 25 -24 11 -25 69
-122 127 -213 13 -19 20 -26 16 -15 -58 164 -114 300 -122 298 -17 -3 -28 16
-51 86 -18 52 -19 67 -9 79 17 21 107 92 117 92 4 0 21 -32 39 -70z m3091 50
c0 -5 -8 -10 -17 -10 -15 0 -16 2 -3 10 19 12 20 12 20 0z m-79 -51 c-23 -16
-48 -28 -54 -26 -7 2 5 12 26 22 20 9 40 21 43 26 3 5 10 9 16 9 6 0 -8 -14
-31 -31z m-162 -126 c-27 -25 -52 -44 -55 -41 -6 6 84 88 97 88 4 0 -14 -21
-42 -47z m-95 -93 c-23 -21 -44 -43 -45 -48 -4 -9 -58 -75 -113 -135 -15 -18
-36 -41 -45 -52 -30 -39 -119 -102 -201 -145 -80 -40 -105 -46 -81 -16 7 8 10
19 7 24 -2 4 10 9 27 9 53 2 88 20 80 40 -6 16 -5 17 12 3 17 -14 18 -13 12 4
-6 14 -4 17 9 12 8 -3 25 -1 36 5 17 9 18 13 7 21 -11 8 -10 9 4 4 10 -3 26 3
37 14 11 11 24 20 29 20 5 0 15 10 24 23 8 12 26 33 38 47 32 33 80 92 99 120
28 42 75 89 90 89 9 0 -2 -16 -26 -39z m-117 24 c-3 -3 -12 -4 -19 -1 -8 3 -5
6 6 6 11 1 17 -2 13 -5z m-89 -109 c-2 -25 -53 -59 -71 -48 -7 4 59 72 70 73
2 0 2 -11 1 -25z m-1902 -194 c31 -38 76 -98 100 -132 48 -70 47 -74 -22 -85
l-39 -6 -46 69 c-26 37 -47 75 -47 83 0 8 -5 39 -11 69 -6 29 -11 58 -11 62 0
22 23 4 76 -60z m1654 -1 c-6 -11 -25 -27 -43 -34 -38 -17 -77 -50 -77 -64 0
-6 -8 -8 -18 -5 -10 2 -29 -6 -44 -20 -15 -14 -29 -22 -32 -19 -9 8 25 42 41
42 7 0 13 5 13 10 0 6 9 10 19 10 10 0 21 7 25 15 3 8 11 15 18 15 8 0 28 13
45 29 27 24 44 35 61 40 1 1 -2 -8 -8 -19z m220 -40 c0 -5 -5 -10 -11 -10 -5
0 -7 5 -4 10 3 6 8 10 11 10 2 0 4 -4 4 -10z m-45 -30 c-10 -11 -23 -20 -29
-20 -6 1 0 10 13 20 30 26 39 26 16 0z m-4605 -20 c0 -5 -6 -10 -12 -11 -7 0
-23 -2 -34 -5 -12 -2 -27 3 -34 11 -11 13 -6 15 34 15 25 0 46 -4 46 -10z
m4560 -8 c0 -5 -19 -16 -42 -26 -24 -9 -55 -24 -70 -32 -16 -8 -28 -12 -28 -7
0 4 28 22 63 39 69 35 77 38 77 26z m-180 -38 c0 -8 -43 -43 -53 -44 -5 0 -33
-11 -64 -25 -73 -34 -81 -24 -10 11 31 15 54 31 51 36 -3 4 1 5 8 3 8 -3 22 1
33 9 21 16 35 20 35 10z m-65 -84 c-3 -5 -12 -10 -18 -10 -7 0 -6 4 3 10 19
12 23 12 15 0z m-225 -9 c0 -9 -60 -41 -78 -41 -5 0 -15 -7 -22 -15 -7 -8 -17
-15 -23 -15 -6 0 2 14 18 30 16 17 39 30 52 30 13 0 23 5 23 10 0 6 7 10 15
10 8 0 15 -4 15 -9z m177 -17 c-3 -3 -12 -4 -19 -1 -8 3 -5 6 6 6 11 1 17 -2
13 -5z m-207 -44 c0 -5 -2 -10 -4 -10 -3 0 -8 5 -11 10 -3 6 -1 10 4 10 6 0
11 -4 11 -10z m1573 -25 c-3 -9 -8 -14 -10 -11 -3 3 -2 9 2 15 9 16 15 13 8
-4z m-40 -52 c-9 -16 -29 -44 -43 -63 -15 -19 -38 -53 -51 -76 -26 -44 -63
-95 -91 -125 -10 -11 -18 -26 -18 -34 0 -8 -4 -15 -10 -15 -19 0 -23 -50 -6
-69 16 -18 15 -22 -18 -74 -20 -31 -41 -59 -47 -62 -6 -4 -47 31 -95 81 -77
80 -96 106 -76 103 27 -5 72 3 72 12 0 5 -5 7 -11 3 -7 -4 -6 3 2 17 7 14 14
19 16 12 7 -20 56 10 118 75 12 12 30 22 40 22 11 0 15 5 11 16 -3 8 -2 13 3
10 5 -3 12 5 15 19 4 16 13 25 26 25 10 0 22 5 25 10 5 8 11 8 20 0 8 -7 15
-7 19 -1 3 5 3 11 -1 14 -5 2 -2 2 5 1 6 -2 12 3 12 11 0 11 86 112 98 114 1
1 -5 -11 -15 -26z m-3280 -200 c3 -5 -1 -13 -8 -20 -10 -10 -14 -9 -18 1 -8
21 15 37 26 19z m2983 -40 c-10 -10 -19 5 -10 18 6 11 8 11 12 0 2 -7 1 -15
-2 -18z m-2791 -13 c3 -5 -3 -10 -14 -10 -12 0 -21 5 -21 10 0 6 6 10 14 10 8
0 18 -4 21 -10z m-175 -127 c11 -10 -35 -32 -66 -31 -39 1 -43 11 -12 32 19
14 62 13 78 -1z m1100 -33 c0 -5 -4 -10 -10 -10 -5 0 -10 5 -10 10 0 6 5 10
10 10 6 0 10 -4 10 -10z m-176 -60 c16 -6 26 -17 26 -29 0 -19 -4 -18 -57 10
-32 17 -62 34 -67 39 -9 9 56 -4 98 -20z m264 -17 c0 -36 -14 -53 -44 -53 -19
0 -24 5 -24 26 0 14 -4 22 -10 19 -6 -3 -7 1 -4 9 7 18 34 22 34 6 0 -5 7 -10
15 -10 8 0 15 9 15 21 0 11 4 18 9 15 5 -3 9 -18 9 -33z"/>
<path d="M2450 744 c0 -6 60 -96 89 -134 11 -14 23 -22 26 -18 4 4 -19 41 -50
82 -54 72 -65 84 -65 70z"/>
<path d="M5388 303 c7 -3 16 -2 19 1 4 3 -2 6 -13 5 -11 0 -14 -3 -6 -6z"/>
<path d="M3110 9031 c0 -6 4 -13 10 -16 6 -3 7 1 4 9 -7 18 -14 21 -14 7z"/>
<path d="M2738 8653 c6 -2 18 -2 25 0 6 3 1 5 -13 5 -14 0 -19 -2 -12 -5z"/>
<path d="M170 8521 c0 -6 4 -12 9 -15 13 -8 42 4 35 15 -7 12 -44 12 -44 0z"/>
<path d="M950 8343 c-35 -2 -67 -9 -71 -14 -9 -15 -152 -15 -157 -1 -4 14 -79
16 -84 2 -1 -5 -56 -10 -120 -11 -116 -1 -118 -2 -118 -24 0 -20 7 -24 53 -30
75 -11 217 -8 265 4 59 16 353 23 446 10 76 -10 176 -5 176 10 0 16 -94 35
-190 37 -67 1 -105 5 -108 13 -2 6 -9 10 -15 9 -7 -1 -41 -3 -77 -5z"/>
<path d="M32 8322 c-30 -3 -32 -6 -32 -43 l0 -39 43 -1 c68 -3 112 2 118 13 5
7 24 6 58 -2 29 -7 54 -11 55 -9 11 12 -16 49 -35 49 -13 0 -30 6 -38 14 -16
14 -108 24 -169 18z"/>
<path d="M1462 8307 c-11 -13 -5 -16 50 -21 93 -9 165 1 146 20 -3 3 -46 8
-95 11 -72 5 -91 3 -101 -10z"/>
<path d="M0 8170 c0 -5 5 -10 11 -10 5 0 7 5 4 10 -3 6 -8 10 -11 10 -2 0 -4
-4 -4 -10z"/>
<path d="M0 8105 c0 -23 3 -26 23 -21 12 3 30 6 40 6 9 0 17 7 17 15 0 8 -8
15 -17 15 -10 0 -28 3 -40 6 -20 5 -23 2 -23 -21z"/>
<path d="M0 7909 c0 -5 5 -7 10 -4 5 3 10 8 10 11 0 2 -4 4 -10 4 -5 0 -10 -5
-10 -11z"/>
<path d="M143 7679 c-6 -6 -32 -13 -57 -14 -90 -6 -86 1 -86 -151 0 -74 4
-134 8 -134 5 0 17 6 27 14 14 10 40 13 93 10 40 -3 78 -1 85 3 20 13 88 11
172 -5 110 -21 322 -22 335 -2 7 12 32 14 132 12 80 -2 134 1 153 9 17 6 48
15 70 18 33 5 41 10 43 31 6 48 10 52 36 35 13 -9 46 -19 74 -24 45 -7 51 -6
55 11 5 16 11 18 41 12 24 -4 36 -2 36 5 0 15 53 14 68 -1 9 -9 12 -8 12 5 0
13 10 17 43 19 92 4 125 7 192 17 39 6 91 14 118 17 41 6 47 10 47 30 0 21 -5
24 -40 24 -35 0 -40 -3 -40 -22 0 -17 -3 -19 -12 -10 -7 7 -25 12 -40 12 -18
0 -28 5 -28 15 0 9 -10 16 -27 17 -16 0 -39 2 -53 3 -48 3 -135 17 -195 31
-72 16 -162 18 -236 4 -44 -9 -181 -12 -294 -8 -11 1 -79 -4 -151 -10 -138
-12 -302 -8 -395 9 -38 8 -67 8 -92 1 -43 -12 -75 -6 -79 15 -2 11 -6 11 -15
2z"/>
<path d="M2661 7464 c-30 -38 -28 -74 4 -74 23 0 25 3 25 50 0 28 -2 50 -4 50
-3 0 -14 -12 -25 -26z"/>
<path d="M2810 7370 c-12 -8 -10 -10 8 -10 13 0 20 4 17 10 -7 12 -6 12 -25 0z"/>
<path d="M2850 7345 c0 -10 7 -15 18 -13 21 4 19 22 -2 26 -10 2 -16 -3 -16
-13z"/>
<path d="M0 6496 l0 -845 36 -7 c24 -4 39 -3 44 6 4 7 16 9 28 6 11 -4 23 -2
27 4 8 13 61 13 86 0 14 -8 19 -7 19 1 0 8 4 8 15 -1 14 -12 19 -7 16 13 -1 5
2 6 7 3 4 -2 14 -1 21 4 8 4 34 2 60 -5 52 -16 132 -19 207 -9 34 4 54 2 58
-5 4 -6 28 -11 54 -11 26 -1 66 -5 89 -9 29 -6 44 -5 47 3 3 8 7 8 13 0 11
-15 273 -17 290 -3 7 6 16 8 21 5 6 -3 44 -1 87 4 62 8 83 7 112 -5 44 -18 43
-19 43 1 0 13 3 14 14 5 10 -8 22 -8 47 3 27 11 30 15 13 19 -15 4 -14 5 6 6
28 2 60 22 60 39 0 5 7 13 16 16 20 7 15 51 -6 51 -8 1 -25 6 -37 13 -12 7
-28 12 -36 12 -8 0 -20 7 -27 15 -9 10 -9 15 -1 15 6 0 11 6 11 14 0 8 7 16
16 18 9 2 22 18 28 37 13 39 32 51 39 24 3 -13 9 -6 22 25 15 34 25 44 54 52
30 7 109 16 191 20 12 0 11 3 -3 14 -17 13 -16 15 10 24 22 8 24 11 7 11 -11
1 -25 6 -32 13 -9 9 -12 9 -12 -1 0 -9 -7 -11 -22 -7 -13 3 -75 17 -138 31
-63 14 -129 30 -146 35 -17 6 -41 10 -55 10 -23 1 -23 1 -5 15 10 8 24 16 30
18 6 2 0 14 -14 25 l-25 21 28 1 c23 0 27 -4 27 -30 0 -16 5 -30 10 -30 6 0
10 14 10 30 0 17 -4 30 -10 30 -5 0 -10 11 -10 24 0 24 1 24 78 19 62 -4 91
-1 149 17 40 12 71 26 68 30 -7 11 -94 40 -121 40 -25 0 -45 21 -26 28 7 2 12
12 12 22 0 10 8 20 18 22 25 7 25 46 1 59 -11 6 -26 8 -33 6 -21 -8 -66 48
-66 82 0 29 2 31 40 31 29 0 40 -4 40 -15 0 -19 4 -19 43 1 21 12 32 13 35 5
6 -19 22 -12 22 9 0 12 -7 20 -16 20 -9 0 -27 9 -41 20 -14 11 -36 20 -48 20
-29 0 -37 10 -24 27 9 10 5 13 -20 13 -17 0 -31 5 -31 10 0 6 -26 10 -57 10
-65 0 -103 8 -103 21 0 5 18 9 40 9 32 0 40 4 40 18 0 17 8 18 88 14 50 -2 96
-10 109 -18 30 -19 36 -18 51 7 10 15 11 24 3 32 -8 8 -11 7 -11 -2 0 -8 -10
-5 -30 9 -16 12 -30 28 -30 36 0 8 -4 14 -10 14 -5 0 -10 6 -10 14 0 8 -16 16
-40 20 -42 7 -48 14 -28 34 9 9 1 12 -36 12 -26 0 -57 5 -69 12 -12 6 -62 13
-112 14 -49 2 -95 3 -102 4 -7 0 -10 6 -8 13 4 9 -7 11 -40 9 -36 -3 -45 -1
-45 12 0 11 -10 16 -32 17 l-33 2 35 6 c32 6 35 8 32 39 -3 31 -2 32 22 22 29
-11 202 -5 258 8 20 6 39 8 42 5 2 -2 18 3 34 11 19 10 71 18 139 22 75 4 120
12 149 25 22 10 46 19 54 19 29 0 0 12 -41 16 -24 3 -55 12 -69 19 -27 15
-155 42 -205 44 -31 1 -129 14 -223 29 -75 13 -296 4 -366 -14 -39 -10 -128
-17 -275 -20 -119 -3 -223 -5 -231 -6 -8 -1 -75 2 -147 5 -117 6 -137 9 -170
31 -21 13 -50 27 -65 30 l-28 6 0 -844z m334 555 c36 -14 -34 -33 -98 -27 -61
6 -76 11 -76 27 0 11 146 11 174 0z m146 -11 c0 -5 -5 -10 -11 -10 -5 0 -7 5
-4 10 3 6 8 10 11 10 2 0 4 -4 4 -10z m1098 -197 c-10 -2 -28 -2 -40 0 -13 2
-5 4 17 4 22 1 32 -1 23 -4z m-233 -53 c-28 -12 -65 -12 -65 0 0 6 19 10 43 9
32 0 37 -2 22 -9z m45 -990 c0 -17 -12 -40 -21 -40 -5 0 -9 13 -9 30 0 22 4
28 15 24 8 -4 15 -10 15 -14z"/>
<path d="M3130 7311 c8 -5 33 -12 55 -15 27 -4 34 -4 20 3 -31 13 -93 24 -75
12z"/>
<path d="M2613 6964 c-7 -33 -13 -71 -13 -84 0 -22 2 -23 15 -9 12 12 15 33
13 85 l-3 69 -12 -61z"/>
<path d="M1639 6977 c-41 -9 -41 -9 -16 -22 29 -15 225 -45 294 -45 54 0 86
13 58 24 -9 3 -25 6 -36 6 -10 0 -19 5 -19 10 0 6 -15 10 -33 10 -18 0 -37 4
-43 10 -12 12 -152 17 -205 7z"/>
<path d="M2740 6821 c0 -7 -28 -40 -62 -74 -34 -34 -78 -84 -99 -110 -21 -26
-42 -49 -46 -50 -4 -1 -7 -15 -5 -32 8 -82 6 -95 -24 -128 -38 -41 -84 -109
-84 -125 0 -7 -4 -12 -10 -12 -5 0 -10 -6 -10 -14 0 -8 -24 -33 -52 -55 -101
-78 -105 -86 -60 -131 31 -31 142 -70 198 -70 38 0 98 -22 108 -39 4 -6 8 -25
10 -43 2 -18 11 -50 20 -70 9 -21 16 -42 16 -47 0 -30 106 -23 276 21 l122 30
16 50 c20 62 20 173 1 253 -18 80 -25 158 -15 175 5 9 -2 24 -22 44 -62 64
-166 214 -206 299 -23 48 -42 91 -42 95 -1 13 -30 46 -30 33z m-52 -530 c6
-38 -7 -70 -33 -87 -20 -13 -28 -14 -39 -5 -11 9 -19 9 -34 0 -16 -10 -27 -10
-58 2 -61 23 -56 48 13 81 93 44 146 47 151 9z"/>
<path d="M1600 6714 c0 -22 3 -25 23 -20 12 3 30 6 40 6 9 0 17 5 17 10 0 6
-11 10 -24 10 -14 0 -28 5 -31 10 -12 19 -25 10 -25 -16z"/>
<path d="M8480 6595 c0 -22 4 -25 40 -25 36 0 40 3 40 25 0 23 -4 25 -40 25
-36 0 -40 -2 -40 -25z"/>
<path d="M8663 6593 c-13 -2 -23 -11 -23 -19 0 -8 -7 -14 -15 -14 -10 0 -15
-10 -15 -29 0 -16 6 -31 15 -35 8 -3 15 -1 15 4 0 6 22 10 50 10 46 0 50 2 66
35 9 20 14 38 11 41 -8 8 -78 13 -104 7z"/>
<path d="M8320 6570 c0 -11 -5 -20 -11 -20 -5 0 -8 -4 -4 -9 5 -9 34 -4 78 14
33 14 19 35 -23 35 -33 0 -40 -3 -40 -20z"/>
<path d="M8400 6546 c0 -8 -10 -16 -22 -19 -22 -3 -22 -4 -4 -12 13 -6 21 -5
24 3 5 17 52 15 58 -3 4 -8 17 -15 30 -15 20 0 24 5 24 30 0 30 -1 30 -55 30
-41 0 -55 -4 -55 -14z"/>
<path d="M8460 6480 c-8 -6 -10 -10 -5 -10 20 -1 -30 -30 -52 -30 -13 0 -23
-4 -23 -9 0 -13 26 -21 66 -21 25 0 42 -8 59 -26 14 -15 25 -30 25 -35 0 -22
-15 -39 -34 -38 -20 0 -20 1 -2 8 25 10 11 19 -57 37 -61 16 -78 7 -74 -40 l2
-31 -62 3 c-35 2 -63 0 -63 -5 0 -9 52 -34 98 -48 12 -3 20 -11 17 -16 -7 -10
10 -12 80 -9 28 1 55 6 60 10 9 8 88 31 146 44 15 3 29 15 32 26 3 12 13 20
26 20 13 0 21 6 21 16 0 14 7 15 40 10 32 -5 40 -3 40 9 0 8 6 13 13 11 48
-15 67 -16 67 -1 0 9 -9 15 -24 15 -13 0 -29 7 -36 15 -9 10 -9 15 -1 15 16 0
14 25 -4 40 -8 7 -15 21 -15 31 0 15 -6 17 -37 12 -21 -3 -41 -10 -44 -15 -9
-14 -228 -1 -239 14 -3 4 -12 3 -20 -2z"/>
<path d="M8018 6093 c-10 -2 -18 -11 -18 -18 0 -18 57 -48 75 -41 9 3 12 0 9
-9 -4 -10 3 -14 28 -14 43 1 98 -11 98 -21 0 -9 43 -18 124 -26 44 -4 69 -2
90 9 l29 15 -29 5 c-22 3 -18 4 14 6 24 0 41 -3 38 -8 -4 -5 3 -7 14 -4 13 3
22 -1 26 -11 5 -14 15 -16 53 -11 60 8 121 26 121 37 0 13 44 9 83 -7 44 -18
58 -19 55 -2 -2 7 5 11 16 9 25 -5 16 20 -15 35 -29 15 -125 17 -134 3 -4 -6
-11 -8 -16 -5 -16 11 -52 15 -148 20 -65 3 -99 9 -111 20 -22 20 -49 19 -72
-2 -14 -13 -41 -16 -129 -17 -103 -1 -112 1 -129 22 -18 21 -35 25 -72 15z"/>
<path d="M6900 5991 c0 -16 40 -90 59 -111 17 -18 61 -110 61 -129 0 -16 49
-110 68 -130 25 -26 62 -111 62 -141 0 -17 5 -40 10 -50 6 -11 12 -33 14 -50
6 -56 18 -46 13 10 -6 63 -33 155 -53 185 -8 11 -14 30 -14 43 0 23 -7 34 -50
80 -24 26 -51 87 -73 167 -7 22 -17 44 -24 48 -7 4 -13 14 -13 21 0 7 -13 25
-30 41 -17 16 -30 23 -30 16z"/>
<path d="M8873 5979 c14 -8 22 -8 30 0 8 8 3 11 -18 11 -26 -1 -28 -2 -12 -11z"/>
<path d="M2558 5855 c-7 -33 -2 -44 11 -29 4 5 5 20 1 34 -6 25 -6 25 -12 -5z"/>
<path d="M8555 5820 c4 -6 11 -8 16 -5 14 9 11 15 -7 15 -8 0 -12 -5 -9 -10z"/>
<path d="M2764 5735 c-9 -23 16 -47 44 -42 17 3 26 -1 34 -18 13 -29 43 -38
60 -18 11 13 7 20 -22 44 -19 16 -44 29 -57 29 -12 0 -25 5 -28 10 -9 15 -25
12 -31 -5z"/>
<path d="M2600 5650 c0 -5 5 -10 11 -10 5 0 7 5 4 10 -3 6 -8 10 -11 10 -2 0
-4 -4 -4 -10z"/>
<path d="M2618 5624 c-16 -8 -28 -19 -28 -24 0 -11 57 -54 84 -64 11 -4 16
-12 12 -21 -3 -9 10 -27 37 -48 48 -38 74 -51 100 -48 19 3 184 -24 232 -37
27 -8 86 -8 158 0 16 2 25 8 23 15 -9 23 14 24 24 1 8 -21 9 -20 8 8 -2 21 -6
30 -14 27 -8 -3 -11 2 -7 15 3 14 -2 24 -15 31 -11 6 -23 22 -26 36 -8 32
-101 101 -148 110 -33 6 -38 5 -39 -11 -3 -65 -5 -68 -29 -74 -32 -8 -164 29
-210 59 -31 20 -89 41 -115 40 -11 0 -32 -7 -47 -15z"/>
<path d="M2396 5575 c-7 -19 5 -19 30 0 19 14 19 14 -2 15 -12 0 -24 -7 -28
-15z"/>
<path d="M734 5545 c-15 -47 1 -59 82 -62 62 -2 82 6 69 27 -5 8 -11 7 -21 -1
-11 -9 -14 -8 -14 5 0 9 7 16 15 16 8 0 15 5 15 11 0 8 12 10 35 6 36 -6 55 6
33 20 -7 4 -56 9 -108 10 l-95 2 -11 -34z"/>
<path d="M985 5560 c3 -5 13 -10 21 -10 8 0 14 5 14 10 0 6 -9 10 -21 10 -11
0 -17 -4 -14 -10z"/>
<path d="M1261 5560 c-15 -9 -8 -40 8 -40 6 0 7 8 4 18 -6 15 -5 16 13 2 18
-14 18 -14 4 5 -8 11 -15 21 -15 22 0 1 -7 -2 -14 -7z"/>
<path d="M2805 5100 c3 -5 11 -10 16 -10 6 0 7 5 4 10 -3 6 -11 10 -16 10 -6
0 -7 -4 -4 -10z"/>
<path d="M1990 4990 c0 -5 5 -10 10 -10 6 0 10 5 10 10 0 6 -4 10 -10 10 -5 0
-10 -4 -10 -10z"/>
<path d="M7740 4659 c0 -5 5 -7 10 -4 6 3 10 -3 10 -14 0 -12 4 -21 9 -21 14
0 33 28 26 40 -8 13 -55 13 -55 -1z"/>
<path d="M7815 4660 c-4 -6 5 -10 19 -10 14 0 26 5 26 10 0 6 -9 10 -19 10
-11 0 -23 -4 -26 -10z"/>
<path d="M1430 4540 c0 -5 5 -10 10 -10 6 0 10 5 10 10 0 6 -4 10 -10 10 -5 0
-10 -4 -10 -10z"/>
<path d="M905 4410 c-3 -5 -3 -15 1 -21 6 -11 23 6 24 24 0 10 -18 9 -25 -3z"/>
<path d="M42 1618 c7 -19 38 -22 38 -4 0 10 -9 16 -21 16 -12 0 -19 -5 -17
-12z"/>
<path d="M6048 268 c-18 -24 -38 -49 -45 -56 -7 -7 -13 -17 -13 -20 0 -4 -10
-18 -23 -32 -12 -14 -42 -46 -66 -73 -43 -46 -43 -48 -25 -68 14 -15 28 -19
63 -17 l45 3 41 110 c23 61 49 124 58 142 35 66 14 72 -35 11z"/>
</g>
</svg>
